<svg width="181" height="50" viewBox="0 0 181 50" fill="none" xmlns="http://www.w3.org/2000/svg">
<path d="M63.8706 18.7162V14.7392H80.9953V18.7162H74.8518V35H70.024V18.7162H63.8706ZM81.809 35V19.8044H86.5081V22.5744H86.6664C86.9434 21.572 87.3952 20.8267 88.0218 20.3386C88.6483 19.844 89.3771 19.5967 90.2081 19.5967C90.4323 19.5967 90.6632 19.6132 90.9006 19.6461C91.138 19.6725 91.359 19.7154 91.5634 19.7747V23.9792C91.3326 23.9001 91.0292 23.8374 90.6533 23.7913C90.2839 23.7451 89.9542 23.722 89.664 23.722C89.0902 23.722 88.5725 23.8506 88.1108 24.1079C87.6557 24.3585 87.2963 24.7113 87.0325 25.1664C86.7752 25.6149 86.6466 26.1425 86.6466 26.7493V35H81.809ZM97.2469 35.2572C96.2774 35.2572 95.4167 35.0956 94.6649 34.7725C93.9196 34.4427 93.3293 33.948 92.894 33.2885C92.4653 32.6224 92.251 31.7881 92.251 30.7856C92.251 29.9414 92.3994 29.2291 92.6962 28.6487C92.993 28.0683 93.4019 27.5968 93.9229 27.234C94.4439 26.8713 95.0441 26.5976 95.7234 26.4129C96.4027 26.2217 97.1282 26.093 97.8999 26.0271C98.7639 25.9479 99.4597 25.8655 99.9873 25.7798C100.515 25.6874 100.897 25.5588 101.135 25.3939C101.379 25.2225 101.501 24.9817 101.501 24.6718V24.6223C101.501 24.1145 101.326 23.722 100.977 23.445C100.627 23.168 100.155 23.0295 99.5619 23.0295C98.9221 23.0295 98.4077 23.168 98.0186 23.445C97.6295 23.722 97.3821 24.1046 97.2766 24.5926L92.8149 24.4343C92.9468 23.511 93.2865 22.6866 93.8339 21.9611C94.3879 21.229 95.1463 20.6552 96.1093 20.2397C97.0788 19.8176 98.2428 19.6066 99.6015 19.6066C100.571 19.6066 101.465 19.722 102.282 19.9528C103.1 20.1771 103.813 20.5068 104.419 20.9421C105.026 21.3708 105.494 21.8984 105.824 22.525C106.16 23.1515 106.329 23.8671 106.329 24.6718V35H101.778V32.8829H101.659C101.389 33.3973 101.043 33.8326 100.62 34.1888C100.205 34.5449 99.7136 34.812 99.1464 34.9901C98.5858 35.1682 97.9526 35.2572 97.2469 35.2572ZM98.7408 32.0915C99.2618 32.0915 99.7301 31.9859 100.146 31.7749C100.568 31.5638 100.904 31.2737 101.155 30.9043C101.405 30.5284 101.531 30.0931 101.531 29.5984V28.1541C101.392 28.2266 101.224 28.2926 101.026 28.3519C100.835 28.4113 100.624 28.4674 100.393 28.5201C100.162 28.5729 99.9246 28.619 99.6806 28.6586C99.4366 28.6982 99.2024 28.7345 98.9782 28.7674C98.5231 28.84 98.134 28.9521 97.8108 29.1038C97.4943 29.2555 97.2502 29.4533 97.0788 29.6974C96.9139 29.9348 96.8314 30.2184 96.8314 30.5482C96.8314 31.0494 97.0095 31.4319 97.3657 31.6958C97.7284 31.9596 98.1868 32.0915 98.7408 32.0915ZM116.38 35.2869C114.777 35.2869 113.402 34.9571 112.255 34.2976C111.114 33.6381 110.236 32.7213 109.623 31.5474C109.01 30.3668 108.703 29.0016 108.703 27.4517C108.703 25.8952 109.01 24.53 109.623 23.356C110.243 22.1754 111.123 21.2554 112.264 20.5959C113.412 19.9363 114.781 19.6066 116.37 19.6066C117.775 19.6066 118.998 19.8605 120.04 20.3683C121.089 20.8762 121.907 21.595 122.494 22.525C123.087 23.4483 123.401 24.5333 123.434 25.7798H118.913C118.82 25.0015 118.556 24.3915 118.121 23.9496C117.692 23.5077 117.132 23.2867 116.439 23.2867C115.879 23.2867 115.387 23.445 114.965 23.7616C114.543 24.0716 114.213 24.5333 113.976 25.1466C113.745 25.7534 113.63 26.5052 113.63 27.4022C113.63 28.2992 113.745 29.0576 113.976 29.6776C114.213 30.291 114.543 30.7559 114.965 31.0725C115.387 31.3825 115.879 31.5375 116.439 31.5375C116.888 31.5375 117.283 31.4418 117.626 31.2506C117.976 31.0593 118.263 30.779 118.487 30.4097C118.711 30.0337 118.853 29.5787 118.913 29.0444H123.434C123.387 30.2975 123.074 31.3924 122.494 32.3289C121.92 33.2654 121.112 33.9942 120.07 34.5152C119.035 35.0297 117.805 35.2869 116.38 35.2869ZM130.272 31.0131L130.292 25.2455H130.965L135.238 19.8044H140.719L134.368 27.6001H133.092L130.272 31.0131ZM125.909 35V14.7392H130.747V35H125.909ZM135.347 35L131.37 28.6883L134.556 25.2554L140.937 35H135.347ZM148.928 35.2869C147.338 35.2869 145.966 34.9736 144.812 34.3471C143.665 33.7139 142.781 32.8137 142.161 31.6463C141.548 30.4723 141.241 29.0774 141.241 27.4616C141.241 25.8919 141.551 24.5201 142.171 23.3461C142.791 22.1655 143.665 21.2488 144.792 20.5959C145.92 19.9363 147.249 19.6066 148.779 19.6066C149.861 19.6066 150.85 19.7747 151.747 20.1111C152.644 20.4475 153.419 20.9454 154.072 21.6049C154.725 22.2645 155.233 23.079 155.596 24.0485C155.958 25.0114 156.14 26.1161 156.14 27.3626V28.5696H142.933V25.76H151.638C151.632 25.2455 151.51 24.7872 151.272 24.3849C151.035 23.9825 150.708 23.6693 150.293 23.445C149.884 23.2142 149.412 23.0988 148.878 23.0988C148.337 23.0988 147.853 23.2208 147.424 23.4648C146.995 23.7022 146.656 24.0287 146.405 24.4442C146.154 24.8531 146.023 25.3181 146.009 25.8391V28.6982C146.009 29.3181 146.131 29.8623 146.375 30.3305C146.619 30.7922 146.966 31.1516 147.414 31.4089C147.863 31.6661 148.397 31.7947 149.017 31.7947C149.445 31.7947 149.835 31.7353 150.184 31.6166C150.534 31.4979 150.834 31.3231 151.084 31.0923C151.335 30.8614 151.523 30.5778 151.648 30.2415L156.09 30.3701C155.906 31.366 155.5 32.2333 154.873 32.9719C154.253 33.704 153.439 34.2745 152.43 34.6834C151.421 35.0857 150.253 35.2869 148.928 35.2869ZM158.61 35V19.8044H163.31V22.5744H163.468C163.745 21.572 164.197 20.8267 164.823 20.3386C165.45 19.844 166.179 19.5967 167.01 19.5967C167.234 19.5967 167.465 19.6132 167.702 19.6461C167.94 19.6725 168.16 19.7154 168.365 19.7747V23.9792C168.134 23.9001 167.831 23.8374 167.455 23.7913C167.085 23.7451 166.756 23.722 166.465 23.722C165.892 23.722 165.374 23.8506 164.912 24.1079C164.457 24.3585 164.098 24.7113 163.834 25.1664C163.577 25.6149 163.448 26.1425 163.448 26.7493V35H158.61Z" fill="#3B82F6"/>
<path d="M44.8 0H11.2C5.01441 0 0 4.47715 0 10V40C0 45.5228 5.01441 50 11.2 50H44.8C50.9856 50 56 45.5228 56 40V10C56 4.47715 50.9856 0 44.8 0Z" fill="#3B82F6"/>
<path d="M18.8706 18.7162V14.7392H35.9953V18.7162H29.8518V35H25.024V18.7162H18.8706Z" fill="white"/>
</svg>
